<svg xmlns="http://www.w3.org/2000/svg" xmlns:xlink="http://www.w3.org/1999/xlink" width="500" zoomAndPan="magnify" viewBox="0 0 375 374.999991" height="500" preserveAspectRatio="xMidYMid meet" version="1.0"><defs><g/><clipPath id="a3ad351662"><rect x="0" width="81" y="0" height="137"/></clipPath><clipPath id="4160d8660b"><rect x="0" width="75" y="0" height="137"/></clipPath><clipPath id="6431b713d2"><rect x="0" width="43" y="0" height="166"/></clipPath></defs><g transform="matrix(1, 0, 0, 1, 121, 179)"><g clip-path="url(#a3ad351662)"><g fill="#1e1e1e" fill-opacity="1"><g transform="translate(1.611802, 111.669696)"><g><path d="M 21.671875 23.5 L 3.046875 23.5 L 3.046875 22.890625 C 4.578125 22.890625 5.851562 22.382812 6.875 21.375 C 7.988281 20.25 8.546875 18.925781 8.546875 17.40625 L 8.546875 -100.75 C 8.546875 -102.269531 7.988281 -103.539062 6.875 -104.5625 C 5.851562 -105.675781 4.578125 -106.234375 3.046875 -106.234375 L 3.046875 -106.84375 L 21.671875 -106.84375 L 21.671875 -106.234375 C 20.242188 -106.234375 18.972656 -105.675781 17.859375 -104.5625 C 16.835938 -103.539062 16.328125 -102.269531 16.328125 -100.75 L 16.328125 6.265625 L 36.640625 -37.25 L 36.9375 -38 L 66.25 -100.890625 C 66.957031 -102.421875 67.007812 -103.695312 66.40625 -104.71875 C 65.894531 -105.726562 64.925781 -106.234375 63.5 -106.234375 L 63.5 -106.84375 L 74.953125 -106.84375 L 74.953125 -106.234375 C 73.421875 -106.234375 71.84375 -105.675781 70.21875 -104.5625 C 68.6875 -103.539062 67.566406 -102.21875 66.859375 -100.59375 L 41.359375 -46.09375 L 67.15625 17.40625 C 67.769531 18.925781 68.84375 20.195312 70.375 21.21875 C 71.894531 22.332031 73.421875 22.890625 74.953125 22.890625 L 74.953125 23.5 L 55.71875 23.5 L 55.71875 22.890625 C 57.132812 22.890625 58.148438 22.382812 58.765625 21.375 C 59.378906 20.351562 59.378906 19.078125 58.765625 17.546875 L 36.9375 -36.328125 L 16.328125 7.78125 L 16.328125 17.40625 C 16.328125 18.925781 16.835938 20.25 17.859375 21.375 C 18.972656 22.382812 20.242188 22.890625 21.671875 22.890625 Z M 21.671875 23.5 "/></g></g></g></g></g><g transform="matrix(1, 0, 0, 1, 193, 120)"><g clip-path="url(#4160d8660b)"><g fill="#1e1e1e" fill-opacity="1"><g transform="translate(0.785666, 111.317967)"><g><path d="M 9.15625 -106.84375 L 69.453125 -106.84375 L 69.453125 -76.3125 C 69.453125 -67.875 66.5 -60.703125 60.59375 -54.796875 C 59.78125 -53.984375 58.863281 -53.578125 57.84375 -53.578125 C 56.726562 -53.578125 55.765625 -53.984375 54.953125 -54.796875 C 54.234375 -55.503906 53.875 -56.421875 53.875 -57.546875 C 53.875 -58.660156 54.234375 -59.578125 54.953125 -60.296875 C 55.765625 -61.109375 56.726562 -61.515625 57.84375 -61.515625 C 58.863281 -61.515625 59.78125 -61.109375 60.59375 -60.296875 C 61.3125 -59.578125 61.671875 -58.660156 61.671875 -57.546875 C 61.671875 -57.335938 61.671875 -57.132812 61.671875 -56.9375 C 66.453125 -62.53125 68.84375 -68.988281 68.84375 -76.3125 C 68.84375 -84.5625 65.941406 -91.585938 60.140625 -97.390625 C 54.234375 -103.285156 47.160156 -106.234375 38.921875 -106.234375 L 16.328125 -106.234375 L 16.328125 -46.40625 L 33.421875 -46.40625 C 34.847656 -46.40625 36.125 -46.960938 37.25 -48.078125 C 38.257812 -49.097656 38.765625 -50.367188 38.765625 -51.890625 L 38.765625 -68.6875 L 39.375 -68.6875 L 39.375 -40.453125 L 38.765625 -40.453125 C 38.765625 -41.878906 38.257812 -43.148438 37.25 -44.265625 C 36.125 -45.285156 34.847656 -45.796875 33.421875 -45.796875 L 16.328125 -45.796875 L 16.328125 17.40625 C 16.328125 18.925781 16.835938 20.25 17.859375 21.375 C 18.972656 22.382812 20.242188 22.890625 21.671875 22.890625 L 21.671875 23.5 L 3.046875 23.5 L 3.046875 22.890625 C 4.578125 22.890625 5.851562 22.382812 6.875 21.375 C 7.988281 20.25 8.546875 18.925781 8.546875 17.40625 L 8.546875 -100.75 C 8.546875 -102.269531 7.988281 -103.539062 6.875 -104.5625 C 5.851562 -105.675781 4.578125 -106.234375 3.046875 -106.234375 L 3.046875 -106.84375 Z M 9.15625 -106.84375 "/></g></g></g></g></g><g transform="matrix(1, 0, 0, 1, 158, 28)"><g clip-path="url(#6431b713d2)"><g fill="#1e1e1e" fill-opacity="1"><g transform="translate(15.048738, 111.169712)"><g><path d="M -13.734375 53.125 C -9.566406 53.125 -5.773438 51.773438 -2.359375 49.078125 C 1.046875 46.378906 3.789062 42.765625 5.875 38.234375 C 7.957031 33.703125 9 28.691406 9 23.203125 L 9 -100.75 C 9 -102.269531 8.441406 -103.539062 7.328125 -104.5625 C 6.304688 -105.675781 5.035156 -106.234375 3.515625 -106.234375 L 3.515625 -106.84375 L 22.140625 -106.84375 L 22.140625 -106.234375 C 20.710938 -106.234375 19.4375 -105.675781 18.3125 -104.5625 C 17.300781 -103.539062 16.796875 -102.269531 16.796875 -100.75 L 16.796875 23.203125 C 16.796875 28.796875 15.421875 33.90625 12.671875 38.53125 C 9.921875 43.164062 6.226562 46.859375 1.59375 49.609375 C -3.03125 52.359375 -8.140625 53.734375 -13.734375 53.734375 Z M -13.734375 53.125 "/></g></g></g></g></g></svg>